<svg xmlns="http://www.w3.org/2000/svg" viewBox="0 0 128 128" role="img" aria-label="Code Review glasses icon">
  <defs>
    <linearGradient id="bg" x1="0%" y1="0%" x2="100%" y2="100%">
      <stop offset="0%" stop-color="#f4efe4"/>
      <stop offset="100%" stop-color="#e6dcc8"/>
    </linearGradient>
    <linearGradient id="frame" x1="0%" y1="0%" x2="100%" y2="100%">
      <stop offset="0%" stop-color="#2f3947"/>
      <stop offset="100%" stop-color="#111821"/>
    </linearGradient>
    <linearGradient id="lens" x1="0%" y1="0%" x2="100%" y2="100%">
      <stop offset="0%" stop-color="#86c5ff" stop-opacity="0.9"/>
      <stop offset="100%" stop-color="#4787c8" stop-opacity="0.9"/>
    </linearGradient>
  </defs>
  <rect width="128" height="128" rx="28" fill="url(#bg)"/>
  <g transform="translate(8 8)">
    <path d="M20 57c3-12 12-19 25-19h15c12 0 21 7 24 19h8c3-12 12-19 24-19h-8c0-11-9-20-20-20H45c-11 0-20 9-20 20h-5Z" fill="#c6baa4" opacity="0.65"/>
    <rect x="18" y="40" width="40" height="31" rx="15.5" fill="url(#lens)"/>
    <rect x="70" y="40" width="40" height="31" rx="15.5" fill="url(#lens)"/>
    <path d="M34 55h16" stroke="#dff3ff" stroke-width="4" stroke-linecap="round" opacity="0.7"/>
    <path d="M86 55h16" stroke="#dff3ff" stroke-width="4" stroke-linecap="round" opacity="0.7"/>
    <path d="M18 55c0-10 8-18 18-18h4c10 0 18 8 18 18s-8 18-18 18h-4c-10 0-18-8-18-18Zm52 0c0-10 8-18 18-18h4c10 0 18 8 18 18s-8 18-18 18h-4c-10 0-18-8-18-18Z" fill="none" stroke="url(#frame)" stroke-width="8" stroke-linejoin="round"/>
    <path d="M58 49h12c4 0 7 3 7 6s-3 6-7 6H58" fill="none" stroke="url(#frame)" stroke-width="8" stroke-linecap="round" stroke-linejoin="round"/>
    <path d="M17 50 6 44" fill="none" stroke="url(#frame)" stroke-width="7" stroke-linecap="round"/>
    <path d="M111 50 122 44" fill="none" stroke="url(#frame)" stroke-width="7" stroke-linecap="round"/>
    <circle cx="94" cy="34" r="14" fill="#f47b20"/>
    <path d="m94 26 2.5 5.2 5.8.8-4.2 4.1 1 5.9-5.1-2.8-5.1 2.8 1-5.9-4.2-4.1 5.8-.8Z" fill="#fff4d4"/>
  </g>
</svg>
